<?xml version="1.0" encoding="UTF-8" standalone="no"?>
<!-- Created with Inkscape (http://www.inkscape.org/) -->

<svg
   xmlns:dc="http://purl.org/dc/elements/1.1/"
   xmlns:cc="http://creativecommons.org/ns#"
   xmlns:rdf="http://www.w3.org/1999/02/22-rdf-syntax-ns#"
   xmlns:svg="http://www.w3.org/2000/svg"
   xmlns="http://www.w3.org/2000/svg"
   xmlns:xlink="http://www.w3.org/1999/xlink"
   xmlns:sodipodi="http://sodipodi.sourceforge.net/DTD/sodipodi-0.dtd"
   xmlns:inkscape="http://www.inkscape.org/namespaces/inkscape"
   width="210mm"
   height="297mm"
   id="svg2"
   version="1.1"
   inkscape:version="0.48.4 r9939"
   sodipodi:docname="cryptograph_inverted.svg">
  <sodipodi:namedview
     id="base"
     pagecolor="#ffffff"
     bordercolor="#666666"
     borderopacity="1.0"
     inkscape:pageopacity="0.0"
     inkscape:pageshadow="2"
     inkscape:zoom="3.959798"
     inkscape:cx="101.04467"
     inkscape:cy="718.62462"
     inkscape:document-units="px"
     inkscape:current-layer="layer1"
     showgrid="true"
     inkscape:window-width="1920"
     inkscape:window-height="1017"
     inkscape:window-x="-8"
     inkscape:window-y="-8"
     inkscape:window-maximized="1">
    <inkscape:grid
       snapvisiblegridlinesonly="true"
       enabled="true"
       visible="true"
       empspacing="5"
       id="grid4383"
       type="xygrid" />
    <inkscape:grid
       snapvisiblegridlinesonly="true"
       enabled="true"
       visible="true"
       empspacing="5"
       id="grid3007"
       type="xygrid" />
  </sodipodi:namedview>
  <defs
     id="defs4">
    <marker
       style="overflow:visible"
       id="DotS"
       refX="0.0"
       refY="0.0"
       orient="auto"
       inkscape:stockid="DotS">
      <path
         transform="scale(0.2) translate(7.4, 1)"
         style="fill-rule:evenodd;stroke:#000000;stroke-width:1.0pt"
         d="M -2.5,-1.0 C -2.5,1.7600000 -4.7400000,4.0 -7.5,4.0 C -10.260000,4.0 -12.5,1.7600000 -12.5,-1.0 C -12.5,-3.7600000 -10.260000,-6.0 -7.5,-6.0 C -4.7400000,-6.0 -2.5,-3.7600000 -2.5,-1.0 z "
         id="path4548" />
    </marker>
    <linearGradient
       id="linearGradient4371">
      <stop
         id="stop4373"
         offset="0"
         style="stop-color:#ffffff;stop-opacity:0.61452514;" />
      <stop
         id="stop4375"
         offset="1"
         style="stop-color:#ffffff;stop-opacity:0;" />
    </linearGradient>
    <marker
       style="overflow:visible"
       id="DotM"
       refX="0.0"
       refY="0.0"
       orient="auto"
       inkscape:stockid="DotM">
      <path
         transform="scale(0.4) translate(7.4, 1)"
         style="fill-rule:evenodd;stroke:#000000;stroke-width:1.0pt"
         d="M -2.5,-1.0 C -2.5,1.7600000 -4.7400000,4.0 -7.5,4.0 C -10.260000,4.0 -12.5,1.7600000 -12.5,-1.0 C -12.5,-3.7600000 -10.260000,-6.0 -7.5,-6.0 C -4.7400000,-6.0 -2.5,-3.7600000 -2.5,-1.0 z "
         id="path3823" />
    </marker>
    <marker
       style="overflow:visible"
       id="DotL"
       refX="0.0"
       refY="0.0"
       orient="auto"
       inkscape:stockid="DotL">
      <path
         transform="scale(0.8) translate(7.4, 1)"
         style="fill-rule:evenodd;stroke:#000000;stroke-width:1.0pt"
         d="M -2.5,-1.0 C -2.5,1.7600000 -4.7400000,4.0 -7.5,4.0 C -10.260000,4.0 -12.5,1.7600000 -12.5,-1.0 C -12.5,-3.7600000 -10.260000,-6.0 -7.5,-6.0 C -4.7400000,-6.0 -2.5,-3.7600000 -2.5,-1.0 z "
         id="path3820" />
    </marker>
    <linearGradient
       gradientTransform="translate(154.64286,15.535715)"
       gradientUnits="userSpaceOnUse"
       y2="362.36218"
       x2="-15"
       y1="307.36218"
       x1="-55"
       id="linearGradient4393"
       xlink:href="#linearGradient4371"
       inkscape:collect="always" />
    <filter
       id="filter4473"
       inkscape:collect="always">
      <feGaussianBlur
         id="feGaussianBlur4475"
         stdDeviation="0.7634598"
         inkscape:collect="always" />
    </filter>
    <marker
       style="overflow:visible"
       id="DotMK"
       refX="0.0"
       refY="0.0"
       orient="auto"
       inkscape:stockid="DotMK">
      <path
         transform="scale(0.4) translate(7.4, 1)"
         style="stroke:#bcbcbc;stroke-width:1.0pt;fill:#bcbcbc;fill-rule:evenodd"
         d="M -2.5,-1.0 C -2.5,1.7600000 -4.7400000,4.0 -7.5,4.0 C -10.260000,4.0 -12.5,1.7600000 -12.5,-1.0 C -12.5,-3.7600000 -10.260000,-6.0 -7.5,-6.0 C -4.7400000,-6.0 -2.5,-3.7600000 -2.5,-1.0 z "
         id="path3809" />
    </marker>
    <marker
       style="overflow:visible"
       id="DotMV"
       refX="0.0"
       refY="0.0"
       orient="auto"
       inkscape:stockid="DotMV">
      <path
         transform="scale(0.4) translate(7.4, 1)"
         style="stroke:#bcbcbc;stroke-width:1.0pt;fill:#bcbcbc;fill-rule:evenodd"
         d="M -2.5,-1.0 C -2.5,1.7600000 -4.7400000,4.0 -7.5,4.0 C -10.260000,4.0 -12.5,1.7600000 -12.5,-1.0 C -12.5,-3.7600000 -10.260000,-6.0 -7.5,-6.0 C -4.7400000,-6.0 -2.5,-3.7600000 -2.5,-1.0 z "
         id="path3812" />
    </marker>
    <marker
       style="overflow:visible"
       id="DotMj"
       refX="0.0"
       refY="0.0"
       orient="auto"
       inkscape:stockid="DotMj">
      <path
         transform="scale(0.4) translate(7.4, 1)"
         style="stroke:#bcbcbc;stroke-width:1.0pt;fill:#bcbcbc;fill-rule:evenodd"
         d="M -2.5,-1.0 C -2.5,1.7600000 -4.7400000,4.0 -7.5,4.0 C -10.260000,4.0 -12.5,1.7600000 -12.5,-1.0 C -12.5,-3.7600000 -10.260000,-6.0 -7.5,-6.0 C -4.7400000,-6.0 -2.5,-3.7600000 -2.5,-1.0 z "
         id="path3815" />
    </marker>
    <marker
       style="overflow:visible"
       id="DotMz"
       refX="0.0"
       refY="0.0"
       orient="auto"
       inkscape:stockid="DotMz">
      <path
         transform="scale(0.4) translate(7.4, 1)"
         style="stroke:#bcbcbc;stroke-width:1.0pt;fill:#bcbcbc;fill-rule:evenodd"
         d="M -2.5,-1.0 C -2.5,1.7600000 -4.7400000,4.0 -7.5,4.0 C -10.260000,4.0 -12.5,1.7600000 -12.5,-1.0 C -12.5,-3.7600000 -10.260000,-6.0 -7.5,-6.0 C -4.7400000,-6.0 -2.5,-3.7600000 -2.5,-1.0 z "
         id="path3893" />
    </marker>
    <marker
       style="overflow:visible"
       id="DotMH"
       refX="0.0"
       refY="0.0"
       orient="auto"
       inkscape:stockid="DotMH">
      <path
         transform="scale(0.4) translate(7.4, 1)"
         style="stroke:#bcbcbc;stroke-width:1.0pt;fill:#bcbcbc;fill-rule:evenodd"
         d="M -2.5,-1.0 C -2.5,1.7600000 -4.7400000,4.0 -7.5,4.0 C -10.260000,4.0 -12.5,1.7600000 -12.5,-1.0 C -12.5,-3.7600000 -10.260000,-6.0 -7.5,-6.0 C -4.7400000,-6.0 -2.5,-3.7600000 -2.5,-1.0 z "
         id="path3896" />
    </marker>
    <marker
       style="overflow:visible"
       id="DotMr"
       refX="0.0"
       refY="0.0"
       orient="auto"
       inkscape:stockid="DotMr">
      <path
         transform="scale(0.4) translate(7.4, 1)"
         style="stroke:#bcbcbc;stroke-width:1.0pt;fill:#bcbcbc;fill-rule:evenodd"
         d="M -2.5,-1.0 C -2.5,1.7600000 -4.7400000,4.0 -7.5,4.0 C -10.260000,4.0 -12.5,1.7600000 -12.5,-1.0 C -12.5,-3.7600000 -10.260000,-6.0 -7.5,-6.0 C -4.7400000,-6.0 -2.5,-3.7600000 -2.5,-1.0 z "
         id="path3899" />
    </marker>
    <marker
       style="overflow:visible"
       id="DotMKB"
       refX="0.0"
       refY="0.0"
       orient="auto"
       inkscape:stockid="DotMKB">
      <path
         transform="scale(0.4) translate(7.4, 1)"
         style="fill-rule:evenodd;stroke:#bcbcbc;stroke-width:1.0pt;fill:#bcbcbc"
         d="M -2.5,-1.0 C -2.5,1.7600000 -4.7400000,4.0 -7.5,4.0 C -10.260000,4.0 -12.5,1.7600000 -12.5,-1.0 C -12.5,-3.7600000 -10.260000,-6.0 -7.5,-6.0 C -4.7400000,-6.0 -2.5,-3.7600000 -2.5,-1.0 z "
         id="path3902" />
    </marker>
    <marker
       style="overflow:visible"
       id="DotMVt"
       refX="0.0"
       refY="0.0"
       orient="auto"
       inkscape:stockid="DotMVt">
      <path
         transform="scale(0.4) translate(7.4, 1)"
         style="fill-rule:evenodd;stroke:#bcbcbc;stroke-width:1.0pt;fill:#bcbcbc"
         d="M -2.5,-1.0 C -2.5,1.7600000 -4.7400000,4.0 -7.5,4.0 C -10.260000,4.0 -12.5,1.7600000 -12.5,-1.0 C -12.5,-3.7600000 -10.260000,-6.0 -7.5,-6.0 C -4.7400000,-6.0 -2.5,-3.7600000 -2.5,-1.0 z "
         id="path3905" />
    </marker>
    <marker
       style="overflow:visible"
       id="DotMjV"
       refX="0.0"
       refY="0.0"
       orient="auto"
       inkscape:stockid="DotMjV">
      <path
         transform="scale(0.4) translate(7.4, 1)"
         style="fill-rule:evenodd;stroke:#bcbcbc;stroke-width:1.0pt;fill:#bcbcbc"
         d="M -2.5,-1.0 C -2.5,1.7600000 -4.7400000,4.0 -7.5,4.0 C -10.260000,4.0 -12.5,1.7600000 -12.5,-1.0 C -12.5,-3.7600000 -10.260000,-6.0 -7.5,-6.0 C -4.7400000,-6.0 -2.5,-3.7600000 -2.5,-1.0 z "
         id="path3908" />
    </marker>
    <marker
       style="overflow:visible"
       id="DotMz1"
       refX="0.0"
       refY="0.0"
       orient="auto"
       inkscape:stockid="DotMz1">
      <path
         transform="scale(0.4) translate(7.4, 1)"
         style="stroke:#bcbcbc;stroke-width:1.0pt;fill:#bcbcbc;fill-rule:evenodd"
         d="M -2.5,-1.0 C -2.5,1.7600000 -4.7400000,4.0 -7.5,4.0 C -10.260000,4.0 -12.5,1.7600000 -12.5,-1.0 C -12.5,-3.7600000 -10.260000,-6.0 -7.5,-6.0 C -4.7400000,-6.0 -2.5,-3.7600000 -2.5,-1.0 z "
         id="path4007" />
    </marker>
    <marker
       style="overflow:visible"
       id="DotMI"
       refX="0.0"
       refY="0.0"
       orient="auto"
       inkscape:stockid="DotMI">
      <path
         transform="scale(0.4) translate(7.4, 1)"
         style="stroke:#bcbcbc;stroke-width:1.0pt;fill:#bcbcbc;fill-rule:evenodd"
         d="M -2.5,-1.0 C -2.5,1.7600000 -4.7400000,4.0 -7.5,4.0 C -10.260000,4.0 -12.5,1.7600000 -12.5,-1.0 C -12.5,-3.7600000 -10.260000,-6.0 -7.5,-6.0 C -4.7400000,-6.0 -2.5,-3.7600000 -2.5,-1.0 z "
         id="path4010" />
    </marker>
    <marker
       style="overflow:visible"
       id="DotMS"
       refX="0.0"
       refY="0.0"
       orient="auto"
       inkscape:stockid="DotMS">
      <path
         transform="scale(0.4) translate(7.4, 1)"
         style="stroke:#bcbcbc;stroke-width:1.0pt;fill:#bcbcbc;fill-rule:evenodd"
         d="M -2.5,-1.0 C -2.5,1.7600000 -4.7400000,4.0 -7.5,4.0 C -10.260000,4.0 -12.5,1.7600000 -12.5,-1.0 C -12.5,-3.7600000 -10.260000,-6.0 -7.5,-6.0 C -4.7400000,-6.0 -2.5,-3.7600000 -2.5,-1.0 z "
         id="path4013" />
    </marker>
    <marker
       style="overflow:visible"
       id="DotMt"
       refX="0.0"
       refY="0.0"
       orient="auto"
       inkscape:stockid="DotMt">
      <path
         transform="scale(0.4) translate(7.4, 1)"
         style="stroke:#bcbcbc;stroke-width:1.0pt;fill:#bcbcbc;fill-rule:evenodd"
         d="M -2.5,-1.0 C -2.5,1.7600000 -4.7400000,4.0 -7.5,4.0 C -10.260000,4.0 -12.5,1.7600000 -12.5,-1.0 C -12.5,-3.7600000 -10.260000,-6.0 -7.5,-6.0 C -4.7400000,-6.0 -2.5,-3.7600000 -2.5,-1.0 z "
         id="path4016" />
    </marker>
    <marker
       style="overflow:visible"
       id="DotM7"
       refX="0.0"
       refY="0.0"
       orient="auto"
       inkscape:stockid="DotM7">
      <path
         transform="scale(0.4) translate(7.4, 1)"
         style="stroke:#bcbcbc;stroke-width:1.0pt;fill:#bcbcbc;fill-rule:evenodd"
         d="M -2.5,-1.0 C -2.5,1.7600000 -4.7400000,4.0 -7.5,4.0 C -10.260000,4.0 -12.5,1.7600000 -12.5,-1.0 C -12.5,-3.7600000 -10.260000,-6.0 -7.5,-6.0 C -4.7400000,-6.0 -2.5,-3.7600000 -2.5,-1.0 z "
         id="path4019" />
    </marker>
    <marker
       style="overflow:visible"
       id="DotM5"
       refX="0.0"
       refY="0.0"
       orient="auto"
       inkscape:stockid="DotM5">
      <path
         transform="scale(0.4) translate(7.4, 1)"
         style="stroke:#bcbcbc;stroke-width:1.0pt;fill:#bcbcbc;fill-rule:evenodd"
         d="M -2.5,-1.0 C -2.5,1.7600000 -4.7400000,4.0 -7.5,4.0 C -10.260000,4.0 -12.5,1.7600000 -12.5,-1.0 C -12.5,-3.7600000 -10.260000,-6.0 -7.5,-6.0 C -4.7400000,-6.0 -2.5,-3.7600000 -2.5,-1.0 z "
         id="path4022" />
    </marker>
    <marker
       style="overflow:visible"
       id="DotMt4"
       refX="0.0"
       refY="0.0"
       orient="auto"
       inkscape:stockid="DotMt4">
      <path
         transform="scale(0.4) translate(7.4, 1)"
         style="fill-rule:evenodd;stroke:#bcbcbc;stroke-width:1.0pt;fill:#bcbcbc"
         d="M -2.5,-1.0 C -2.5,1.7600000 -4.7400000,4.0 -7.5,4.0 C -10.260000,4.0 -12.5,1.7600000 -12.5,-1.0 C -12.5,-3.7600000 -10.260000,-6.0 -7.5,-6.0 C -4.7400000,-6.0 -2.5,-3.7600000 -2.5,-1.0 z "
         id="path4145" />
    </marker>
    <marker
       style="overflow:visible"
       id="DotM75"
       refX="0.0"
       refY="0.0"
       orient="auto"
       inkscape:stockid="DotM75">
      <path
         transform="scale(0.4) translate(7.4, 1)"
         style="fill-rule:evenodd;stroke:#bcbcbc;stroke-width:1.0pt;fill:#bcbcbc"
         d="M -2.5,-1.0 C -2.5,1.7600000 -4.7400000,4.0 -7.5,4.0 C -10.260000,4.0 -12.5,1.7600000 -12.5,-1.0 C -12.5,-3.7600000 -10.260000,-6.0 -7.5,-6.0 C -4.7400000,-6.0 -2.5,-3.7600000 -2.5,-1.0 z "
         id="path4148" />
    </marker>
    <marker
       style="overflow:visible"
       id="DotM5G"
       refX="0.0"
       refY="0.0"
       orient="auto"
       inkscape:stockid="DotM5G">
      <path
         transform="scale(0.4) translate(7.4, 1)"
         style="fill-rule:evenodd;stroke:#bcbcbc;stroke-width:1.0pt;fill:#bcbcbc"
         d="M -2.5,-1.0 C -2.5,1.7600000 -4.7400000,4.0 -7.5,4.0 C -10.260000,4.0 -12.5,1.7600000 -12.5,-1.0 C -12.5,-3.7600000 -10.260000,-6.0 -7.5,-6.0 C -4.7400000,-6.0 -2.5,-3.7600000 -2.5,-1.0 z "
         id="path4151" />
    </marker>
    <marker
       style="overflow:visible"
       id="DotMG"
       refX="0.0"
       refY="0.0"
       orient="auto"
       inkscape:stockid="DotMG">
      <path
         transform="scale(0.4) translate(7.4, 1)"
         style="stroke:#bcbcbc;stroke-width:1.0pt;fill:#bcbcbc;fill-rule:evenodd"
         d="M -2.5,-1.0 C -2.5,1.7600000 -4.7400000,4.0 -7.5,4.0 C -10.260000,4.0 -12.5,1.7600000 -12.5,-1.0 C -12.5,-3.7600000 -10.260000,-6.0 -7.5,-6.0 C -4.7400000,-6.0 -2.5,-3.7600000 -2.5,-1.0 z "
         id="path4154" />
    </marker>
    <marker
       style="overflow:visible"
       id="DotM3"
       refX="0.0"
       refY="0.0"
       orient="auto"
       inkscape:stockid="DotM3">
      <path
         transform="scale(0.4) translate(7.4, 1)"
         style="stroke:#bcbcbc;stroke-width:1.0pt;fill:#bcbcbc;fill-rule:evenodd"
         d="M -2.5,-1.0 C -2.5,1.7600000 -4.7400000,4.0 -7.5,4.0 C -10.260000,4.0 -12.5,1.7600000 -12.5,-1.0 C -12.5,-3.7600000 -10.260000,-6.0 -7.5,-6.0 C -4.7400000,-6.0 -2.5,-3.7600000 -2.5,-1.0 z "
         id="path4157" />
    </marker>
    <marker
       style="overflow:visible"
       id="DotMi"
       refX="0.0"
       refY="0.0"
       orient="auto"
       inkscape:stockid="DotMi">
      <path
         transform="scale(0.4) translate(7.4, 1)"
         style="stroke:#bcbcbc;stroke-width:1.0pt;fill:#bcbcbc;fill-rule:evenodd"
         d="M -2.5,-1.0 C -2.5,1.7600000 -4.7400000,4.0 -7.5,4.0 C -10.260000,4.0 -12.5,1.7600000 -12.5,-1.0 C -12.5,-3.7600000 -10.260000,-6.0 -7.5,-6.0 C -4.7400000,-6.0 -2.5,-3.7600000 -2.5,-1.0 z "
         id="path4160" />
    </marker>
    <marker
       style="overflow:visible"
       id="DotM2"
       refX="0.0"
       refY="0.0"
       orient="auto"
       inkscape:stockid="DotM2">
      <path
         transform="scale(0.4) translate(7.4, 1)"
         style="stroke:#bcbcbc;stroke-width:1.0pt;fill:#bcbcbc;fill-rule:evenodd"
         d="M -2.5,-1.0 C -2.5,1.7600000 -4.7400000,4.0 -7.5,4.0 C -10.260000,4.0 -12.5,1.7600000 -12.5,-1.0 C -12.5,-3.7600000 -10.260000,-6.0 -7.5,-6.0 C -4.7400000,-6.0 -2.5,-3.7600000 -2.5,-1.0 z "
         id="path4307" />
    </marker>
    <marker
       style="overflow:visible"
       id="DotMu"
       refX="0.0"
       refY="0.0"
       orient="auto"
       inkscape:stockid="DotMu">
      <path
         transform="scale(0.4) translate(7.4, 1)"
         style="stroke:#bcbcbc;stroke-width:1.0pt;fill:#bcbcbc;fill-rule:evenodd"
         d="M -2.5,-1.0 C -2.5,1.7600000 -4.7400000,4.0 -7.5,4.0 C -10.260000,4.0 -12.5,1.7600000 -12.5,-1.0 C -12.5,-3.7600000 -10.260000,-6.0 -7.5,-6.0 C -4.7400000,-6.0 -2.5,-3.7600000 -2.5,-1.0 z "
         id="path4310" />
    </marker>
    <marker
       style="overflow:visible"
       id="DotMg"
       refX="0.0"
       refY="0.0"
       orient="auto"
       inkscape:stockid="DotMg">
      <path
         transform="scale(0.4) translate(7.4, 1)"
         style="stroke:#bcbcbc;stroke-width:1.0pt;fill:#bcbcbc;fill-rule:evenodd"
         d="M -2.5,-1.0 C -2.5,1.7600000 -4.7400000,4.0 -7.5,4.0 C -10.260000,4.0 -12.5,1.7600000 -12.5,-1.0 C -12.5,-3.7600000 -10.260000,-6.0 -7.5,-6.0 C -4.7400000,-6.0 -2.5,-3.7600000 -2.5,-1.0 z "
         id="path4313" />
    </marker>
  </defs>
  <metadata
     id="metadata7">
    <rdf:RDF>
      <cc:Work
         rdf:about="">
        <dc:format>image/svg+xml</dc:format>
        <dc:type
           rdf:resource="http://purl.org/dc/dcmitype/StillImage" />
        <dc:title></dc:title>
      </cc:Work>
    </rdf:RDF>
  </metadata>
  <g
     style="display:inline"
     id="layer1"
     inkscape:groupmode="layer"
     inkscape:label="Graph">
    <rect
       inkscape:export-ydpi="14.620793"
       inkscape:export-xdpi="14.620793"
       inkscape:export-filename="D:\cryptograph_ico.png"
       y="239.18941"
       x="36.36549"
       height="196.97974"
       width="196.97974"
       id="rect6433"
       style="fill:#ff0000;fill-opacity:0;stroke:none" />
    <path
       sodipodi:nodetypes="cc"
       inkscape:export-ydpi="14.620793"
       inkscape:export-xdpi="14.620793"
       inkscape:export-filename="D:\cryptograph_ico.png"
       inkscape:connector-curvature="0"
       id="path3031"
       d="m 230,332.36218 -90,-5"
       style="stroke-linejoin:miter;marker-end:url(#DotM5G);stroke-opacity:1;marker-start:url(#DotMt4);stroke:#bcbcbc;stroke-linecap:butt;stroke-miterlimit:4;stroke-dasharray:none;stroke-width:3;marker-mid:url(#DotM75);fill:none" />
    <path
       sodipodi:nodetypes="cc"
       inkscape:export-ydpi="14.620793"
       inkscape:export-xdpi="14.620793"
       inkscape:export-filename="D:\cryptograph_ico.png"
       inkscape:connector-curvature="0"
       id="path3029"
       d="m 195,422.36218 -55,-95"
       style="stroke-linejoin:miter;marker-end:url(#DotMg);stroke-opacity:1;marker-start:url(#DotM2);stroke:#bcbcbc;stroke-linecap:butt;stroke-miterlimit:4;stroke-dasharray:none;stroke-width:3;marker-mid:url(#DotMu);fill:none" />
    <path
       sodipodi:nodetypes="cccc"
       inkscape:export-ydpi="14.620793"
       inkscape:export-xdpi="14.620793"
       inkscape:export-filename="D:\cryptograph_ico.png"
       inkscape:connector-curvature="0"
       id="path3027"
       d="m 180,247.36218 -40,80 0,0 0,0"
       style="stroke-linejoin:miter;marker-end:url(#DotMi);stroke-opacity:1;marker-start:url(#DotMG);stroke:#bcbcbc;stroke-linecap:butt;stroke-miterlimit:4;stroke-dasharray:none;stroke-width:3;marker-mid:url(#DotM3);fill:none" />
    <path
       sodipodi:nodetypes="cc"
       inkscape:export-ydpi="14.620793"
       inkscape:export-xdpi="14.620793"
       inkscape:export-filename="D:\cryptograph_ico.png"
       inkscape:connector-curvature="0"
       id="path3023"
       d="M 44.548175,333.06481 140,327.36218"
       style="stroke-linejoin:miter;marker-end:url(#DotMS);stroke-opacity:1;marker-start:url(#DotMz1);stroke:#bcbcbc;stroke-linecap:butt;stroke-miterlimit:4;stroke-dasharray:none;stroke-width:3;marker-mid:url(#DotMI);fill:none" />
    <path
       sodipodi:nodetypes="ccccccccc"
       inkscape:export-ydpi="14.620793"
       inkscape:export-xdpi="14.620793"
       inkscape:export-filename="D:\cryptograph_ico.png"
       inkscape:connector-curvature="0"
       id="path3017"
       d="m 195,422.36218 35,-90 0,0 0,0 -50,-85 -85,0 L 44.548175,333.06481 80,422.36218 z"
       style="stroke-linejoin:miter;marker-end:url(#DotMr);stroke-opacity:1;marker-start:url(#DotMz);stroke:#bcbcbc;stroke-linecap:butt;stroke-miterlimit:4;stroke-dasharray:none;stroke-width:3;marker-mid:url(#DotMH);fill:none" />
    <path
       inkscape:export-ydpi="14.620793"
       inkscape:export-xdpi="14.620793"
       inkscape:export-filename="D:\cryptograph_ico.png"
       inkscape:connector-curvature="0"
       id="path6273"
       d="m 139.68348,298.27097 c -18.92521,0 -34.28125,17.98468 -34.28125,40.1875 0,0.32591 0.0247,0.64469 0.0312,0.96875 l 6.375,0 c -0.008,-0.32236 -0.0312,-0.64412 -0.0312,-0.96875 0,-18.09098 12.48588,-32.78125 27.90625,-32.78125 15.42037,0 27.9375,14.69027 27.9375,32.78125 0,0.32463 -0.0232,0.64639 -0.0312,0.96875 l 6.34375,0 c 0.007,-0.32396 0,-0.64293 0,-0.96875 0,-22.20282 -15.32479,-40.1875 -34.25,-40.1875 z"
       style="fill:#d4aa00;fill-opacity:1;stroke:none;display:inline" />
    <path
       inkscape:export-ydpi="14.620793"
       inkscape:export-xdpi="14.620793"
       inkscape:export-filename="D:\cryptograph_ico.png"
       inkscape:connector-curvature="0"
       id="path4405"
       d="m 138.86161,300.29018 c -18.64828,0.50373 -31.58178,19.5776 -31.4375,37.125 4.38208,0.86189 1.80218,-5.72083 3.46875,-8.4375 3.08198,-15.29874 18.66408,-28.82105 34.84375,-24.5625 14.66265,3.5004 23.71665,18.57346 23.875,33 4.72681,0.60363 0.9407,-6.69148 1.09375,-9.53125 -3.3614,-14.72453 -15.97436,-28.19041 -31.84375,-27.59375 z"
       style="fill:#ffffff;fill-opacity:0.42471044;stroke:none;display:inline;filter:url(#filter4473)" />
    <path
       sodipodi:nodetypes="ccc"
       inkscape:export-ydpi="14.620793"
       inkscape:export-xdpi="14.620793"
       inkscape:export-filename="D:\cryptograph_ico.png"
       inkscape:connector-curvature="0"
       id="path3025"
       d="m 80,422.36218 60,-95 -45,-80"
       style="stroke-linejoin:miter;marker-end:url(#DotMjV);stroke-opacity:1;marker-start:url(#DotMKB);stroke:#bcbcbc;stroke-linecap:butt;stroke-miterlimit:4;stroke-dasharray:none;stroke-width:3;marker-mid:url(#DotMVt);fill:none" />
    <path
       inkscape:export-ydpi="14.620793"
       inkscape:export-xdpi="14.620793"
       inkscape:export-filename="D:\cryptograph_ico.png"
       inkscape:connector-curvature="0"
       id="rect5324"
       d="m 98.927213,337.35233 0,36.09375 0.125,0 c 0.57136,21.84315 18.456507,39.375 40.437497,39.375 22.34138,0 40.4375,-18.12736 40.4375,-40.46875 0,-0.97857 -0.0255,-1.91381 -0.0937,-2.875 l 0,-32.125 -80.906247,0 z m 40.906247,23.53125 c 4.19005,0 7.5625,3.37245 7.5625,7.5625 0,2.54044 -1.23974,4.77986 -3.15625,6.15625 l 0,10.65625 c 0,2.28279 -1.84222,4.125 -4.125,4.125 -2.28278,0 -4.125,-1.84221 -4.125,-4.125 l 0,-10.25 c -2.25247,-1.31497 -3.75,-3.76532 -3.75,-6.5625 0,-4.19005 3.40371,-7.5625 7.59375,-7.5625 z"
       style="fill:#d4aa00;fill-opacity:1;stroke:#b39100;stroke-width:1;stroke-miterlimit:4;stroke-opacity:1;stroke-dasharray:none;display:inline" />
    <path
       inkscape:export-ydpi="14.620793"
       inkscape:export-xdpi="14.620793"
       inkscape:export-filename="D:\cryptograph_ico.png"
       inkscape:connector-curvature="0"
       id="path4384"
       d="m 98.924106,337.34822 0,36.09375 0.125,0 c 0.136622,5.22308 1.282934,10.20069 3.218754,14.75 9.11279,-7.04649 19.15915,-14.23849 30.125,-21.25 0.002,-0.01 -0.002,-0.0213 0,-0.0312 0.70878,-3.45251 3.77121,-6.03125 7.4375,-6.03125 0.66002,0 1.29678,0.0926 1.90625,0.25 11.79054,-7.08103 24.52606,-13.84962 38.09375,-19.96875 l 0,-3.8125 -80.906254,0 z"
       style="fill:url(#linearGradient4393);fill-opacity:1;stroke:none;display:inline" />
  </g>
  <g
     style="display:inline"
     inkscape:label="Lock"
     id="layer2"
     inkscape:groupmode="layer" />
</svg>
